<?xml version="1.0" encoding="UTF-8"?>
<svg id="Layer_1" data-name="Layer 1" xmlns="http://www.w3.org/2000/svg" version="1.1" viewBox="0 0 24 24">
  <defs>
    <style>
      .cls-1 {
        fill: #ffe787;
        stroke-width: 0px;
      }
    </style>
  </defs>
  <path class="cls-1" d="M2.4,21.6c-.7,0-1.2-.2-1.7-.7s-.7-1-.7-1.7V4.8c0-.7.2-1.2.7-1.7s1-.7,1.7-.7h19.2c.7,0,1.2.2,1.7.7s.7,1,.7,1.7v14.4c0,.7-.2,1.2-.7,1.7s-1,.7-1.7.7H2.4ZM2.4,19.2h19.2V7.2H2.4v12ZM6.6,18l-1.7-1.7,3.1-3.1-3.1-3.1,1.7-1.7,4.8,4.8-4.8,4.8ZM12,18v-2.4h7.2v2.4h-7.2Z"/>
</svg>